# xmcd
#
# Track frame offsets:
#	150
#	16152
#	30600
#	47067
#	70260
#	91935
#	109767
#	119187
#	134735
#	148647
#	162542
#	177007
#	188840
#	208870
#
# Disc length: 3007 seconds
# Revision: 2
# Processed by: cddbd v1.5.2PL0 Copyright (c) Steve Scherf et al.
# Submitted via: dBpowerAMP V12.0
#
DISCID=cf0bbd0e
DTITLE=Freud Marx Engels and Jung - Paikkoi Ja Pleisei
DYEAR=2002
DGENRE=Country
TTITLE0=Paikkoi Ja Pleisei
TTITLE1=Just Niin Mä Tulin Turkuun
TTITLE2=Kalaan (Ei Oisi Kantsinu)
TTITLE3=Isätön Cowboy
TTITLE4=Vanha Kaarti
TTITLE5=Belse Pubissa
TTITLE6=Nurkkapöytä
TTITLE7=Koiran Virka
TTITLE8=Siperian Oppia
TTITLE9=Autolla Amerikkaan
TTITLE10=Paha Mari
TTITLE11=Elvis
TTITLE12=Jos Vain
TTITLE13=Kuolema Kairassa
EXTD=
EXTT0=
EXTT1=
EXTT2=
EXTT3=
EXTT4=
EXTT5=
EXTT6=
EXTT7=
EXTT8=
EXTT9=
EXTT10=
EXTT11=
EXTT12=
EXTT13=
PLAYORDER=
